# xmcd
#
# Track frame offsets:
# 150
# 70817
# 94491
# 122594
# 141350
# 159099
# 178606
# 197198
# 209512
# 251674
#
# Disc length: 3631 seconds
#
# Revision: 0
# Processed by: cddbd v1.4PL0 Copyright (c) Steve Scherf et al.
# Submitted via: Audion 3.0.2 (http://www.panic.com/audion/)
#
DISCID=930e2d0a
DTITLE=Cold Storage - Wipeout 2097
DYEAR=1900
DGENRE=
TTITLE0=Unknown
TTITLE1=Body In Motion
TTITLE2=Canada
TTITLE3=Hakapik Murder
TTITLE4=Plasticity
TTITLE5=Messij Received
TTITLE6=Surgeon
TTITLE7=Tenation
TTITLE8=Messij Xtnd
TTITLE9=Kinkong
EXTD=
EXTT0=
EXTT1=
EXTT2=
EXTT3=
EXTT4=
EXTT5=
EXTT6=
EXTT7=
EXTT8=
EXTT9=
PLAYORDER=
